<svg width="115" height="33" viewBox="0 0 115 33" fill="none" xmlns="http://www.w3.org/2000/svg">
<path d="M22.3104 0.395996V6.21537H6.97776V13.4867H20.2649V18.8659H6.97776V31.8766H0V0.395996H22.3104Z" fill="black"/>
<path d="M36.5022 31.5409C34.9549 32.1798 33.2913 32.4958 31.6153 32.469C30.2411 32.4794 28.8742 32.2705 27.567 31.8502C26.3582 31.4693 25.2419 30.8451 24.2879 30.0169C23.3588 29.1913 22.6141 28.1823 22.1018 27.0548C21.5463 25.7906 21.2722 24.4227 21.298 23.0442C21.2844 21.9928 21.4809 20.9491 21.8763 19.9733C22.2564 19.0513 22.7901 18.1991 23.4551 17.4524C24.1398 16.6904 24.9168 16.0149 25.7684 15.4414C26.6203 14.8627 27.5132 14.3457 28.4403 13.8944C27.627 12.9316 26.9031 11.898 26.2774 10.8063C25.6785 9.69131 25.3797 8.44226 25.4099 7.17961C25.3968 6.15626 25.6308 5.14462 26.0923 4.22899C26.5476 3.34813 27.1793 2.56836 27.9487 1.93725C28.7364 1.29728 29.6335 0.802447 30.5975 0.476259C31.5989 0.148498 32.6484 -0.0122011 33.7031 0.000721737C34.8588 -0.0089012 36.0092 0.155301 37.1152 0.487718C38.1204 0.78632 39.0587 1.27249 39.8796 1.92006C40.6728 2.56214 41.3127 3.37021 41.7534 4.28628C42.2288 5.31143 42.4641 6.42981 42.4416 7.55775C42.4938 9.26211 41.9159 10.9267 40.8165 12.2386C39.6803 13.5423 38.3071 14.6229 36.7682 15.4242L40.8685 20.4144C41.1951 19.836 41.4495 19.2203 41.6261 18.581C41.8042 17.9509 41.9395 17.3097 42.031 16.6617H47.5193C47.3697 18.0669 47.0393 19.4475 46.5361 20.7697C46.0319 22.0921 45.3237 23.329 44.4368 24.4365L50.9083 31.8846H43.1587L40.5505 28.7564C39.3837 29.9213 38.0117 30.865 36.5022 31.5409ZM30.1406 18.8159C29.6158 19.1318 29.1371 19.5174 28.7179 19.9618C28.3077 20.3939 27.9682 20.8869 27.7116 21.4228C27.4536 21.9754 27.3251 22.5787 27.3357 23.1875C27.3334 23.7475 27.462 24.3006 27.7116 24.8031C27.956 25.3055 28.298 25.7552 28.7179 26.1266C29.1373 26.4996 29.6186 26.7981 30.1406 27.0089C30.6909 27.2328 31.2807 27.3458 31.8756 27.3412C32.9183 27.3652 33.9466 27.0971 34.8424 26.5678C35.7332 26.0164 36.5379 25.3389 37.2309 24.5568L31.783 17.9737C31.2146 18.2125 30.6655 18.4941 30.1406 18.8159ZM36.0511 5.06548C35.7943 4.78694 35.4816 4.56458 35.133 4.41265C34.7845 4.26072 34.4077 4.18255 34.0269 4.18316C33.2804 4.17393 32.5593 4.45109 32.0144 4.95662C31.7366 5.21128 31.5175 5.52217 31.3718 5.86818C31.2261 6.21419 31.1573 6.58721 31.17 6.9619C31.143 7.88215 31.4258 8.78515 31.9739 9.52865C32.5059 10.2315 33.0708 10.9534 33.6684 11.6944C34.5067 11.1803 35.2829 10.5729 35.9817 9.88387C36.3147 9.51987 36.5712 9.09374 36.736 8.63039C36.9008 8.16704 36.9708 7.67578 36.9417 7.18534C36.9435 6.79082 36.8645 6.40003 36.7094 6.03664C36.5543 5.67326 36.3264 5.34482 36.0395 5.07121L36.0511 5.06548Z" fill="black"/>
<path d="M59.7545 0.395996L67.2033 22.0443H67.29L74.3397 0.395996H84.1711V31.8766H77.6361V9.58237H77.5494L69.7421 31.8766H64.3464L56.5391 9.77102H56.4523V31.8766H49.8942V0.395996H59.7545Z" fill="black"/>
<path d="M100.549 0.396683C102.501 0.378922 104.441 0.705739 106.278 1.36174C108.008 1.98354 109.578 2.97617 110.873 4.26835C112.223 5.65149 113.256 7.30483 113.903 9.1165C114.677 11.3182 115.047 13.6388 114.995 15.969C115.017 18.1156 114.717 20.2535 114.105 22.3133C113.564 24.152 112.645 25.8607 111.405 27.3327C110.176 28.7617 108.637 29.8995 106.902 30.6619C104.894 31.51 102.726 31.9228 100.543 31.8725H86.8077V0.396683H100.549ZM100.063 26.0251C101.064 26.026 102.058 25.8639 103.006 25.5454C103.968 25.2123 104.837 24.6607 105.544 23.935C106.345 23.0967 106.954 22.0975 107.33 21.0056C107.806 19.5907 108.031 18.105 107.995 16.6143C108.01 15.1696 107.853 13.7282 107.526 12.32C107.256 11.1299 106.732 10.0104 105.989 9.03655C105.248 8.10687 104.273 7.38605 103.162 6.94654C101.775 6.42538 100.298 6.17895 98.8146 6.22131H93.8199V26.0365L100.063 26.0251Z" fill="black"/>
</svg>
